<?xml version="1.0" encoding="UTF-8"?>
<svg version="1.1" xmlns="http://www.w3.org/2000/svg" width="512" height="512">
<path d="M0 0 C0.98373596 0.00182281 1.96747192 0.00364563 2.98101807 0.00552368 C18.4761722 0.0537272 33.64273806 0.61279914 48.9375 3.3125 C49.89591797 3.47878906 50.85433594 3.64507812 51.84179688 3.81640625 C87.36173188 10.22280735 121.48346536 24.58679105 148.9375 48.3125 C149.74058594 49.00601563 150.54367187 49.69953125 151.37109375 50.4140625 C153.93167878 52.6750471 156.44142924 54.98054399 158.9375 57.3125 C159.80117188 58.11042969 160.66484375 58.90835938 161.5546875 59.73046875 C174.4891927 72.12134981 184.70775434 87.03181087 193.9375 102.3125 C194.47600586 103.20340332 194.47600586 103.20340332 195.02539062 104.11230469 C205.65883472 122.05497087 212.43444736 142.29123125 217.9375 162.3125 C203.34975063 166.66956082 188.74234328 170.75868253 173.9375 174.3125 C172.310954 170.03473375 170.73225 165.75048544 169.24609375 161.421875 C163.20532943 143.99784242 155.97346338 127.21105057 144.9375 112.3125 C144.53982422 111.76964355 144.14214844 111.22678711 143.73242188 110.66748047 C117.02609566 74.47123451 78.02265552 55.70404732 34.18359375 48.890625 C32.7690078 48.69228185 31.35361271 48.49963149 29.9375 48.3125 C29.24043945 48.21678711 28.54337891 48.12107422 27.82519531 48.02246094 C19.19235687 46.99183966 10.49408666 47.0687491 1.8125 47.0625 C0.96979553 47.06182526 0.12709106 47.06115051 -0.7411499 47.06045532 C-48.45449386 47.1209665 -91.70337561 60.5286329 -126.75 93.6875 C-140.23907732 107.77314585 -150.63591587 125.36343041 -158.0625 143.3125 C-158.34544922 143.98732422 -158.62839844 144.66214844 -158.91992188 145.35742188 C-186.03472425 211.12138576 -186.13543675 299.38377672 -159.671875 365.4375 C-142.98708157 405.46485246 -116.61574986 435.06001818 -76.48144531 452.32373047 C-51.91670859 462.36482693 -25.3614831 465.74324489 1 465.625 C1.84889801 465.62317719 2.69779602 465.62135437 3.57241821 465.61947632 C43.1156306 465.47712947 81.01056414 457.15226264 111.9375 431.3125 C112.45054687 430.88598145 112.96359375 430.45946289 113.4921875 430.02001953 C130.14046972 415.98623595 142.9318851 397.71772614 147.9375 376.3125 C148.16050781 375.37664062 148.38351562 374.44078125 148.61328125 373.4765625 C152.71590401 353.1029937 150.04347315 330.11206299 139.05078125 312.24609375 C137.11023834 309.50493393 135.07469482 306.90242121 132.9375 304.3125 C132.34453125 303.54550781 131.7515625 302.77851563 131.140625 301.98828125 C125.46339487 295.03731359 118.31994708 290.27906201 110.9375 285.3125 C110.85113281 286.10269531 110.76476562 286.89289063 110.67578125 287.70703125 C107.23595563 315.32031027 97.55298741 341.16971454 77.9375 361.3125 C76.95136719 362.37404297 76.95136719 362.37404297 75.9453125 363.45703125 C58.14830073 382.1474673 31.90771842 390.70020585 6.6015625 391.6015625 C-21.08088751 392.15399736 -50.06114159 386.71969589 -71.0625 367.3125 C-71.98804688 366.466875 -72.91359375 365.62125 -73.8671875 364.75 C-89.30645087 350.0220306 -98.10547783 330.43920981 -99.09765625 309.046875 C-98.88742848 286.71601418 -92.72985094 266.02026681 -76.76953125 249.953125 C-75.87621094 249.08171875 -74.98289063 248.2103125 -74.0625 247.3125 C-73.34449219 246.58546875 -72.62648437 245.8584375 -71.88671875 245.109375 C-47.16060255 221.45425819 -10.82333518 216.85425547 21.8125 217.0625 C23.0487764 217.0656572 23.0487764 217.0656572 24.31002808 217.06887817 C38.25872983 217.11060484 52.2466064 217.35014291 65.9375 220.3125 C63.64256511 211.39756061 61.06525501 202.88051003 56.9375 194.625 C56.45796875 193.65626953 56.45796875 193.65626953 55.96875 192.66796875 C49.87373615 180.92032109 39.31837961 173.59095586 26.9375 169.3125 C5.90679913 163.60809421 -16.24626652 164.65727837 -35.52734375 175.20703125 C-43.48076878 179.80396498 -49.15254184 186.38087354 -55.0625 193.3125 C-58.56111753 192.02893126 -61.43556284 190.52965831 -64.46875 188.37109375 C-65.28956055 187.79117676 -66.11037109 187.21125977 -66.95605469 186.61376953 C-68.24624512 185.69120361 -68.24624512 185.69120361 -69.5625 184.75 C-71.34876681 183.48540651 -73.13522556 182.2210841 -74.921875 180.95703125 C-75.79392578 180.33779785 -76.66597656 179.71856445 -77.56445312 179.08056641 C-80.96349636 176.67479323 -84.38455013 174.30182339 -87.8125 171.9375 C-88.83859375 171.22851562 -89.8646875 170.51953125 -90.921875 169.7890625 C-91.98148437 169.05816406 -91.98148437 169.05816406 -93.0625 168.3125 C-89.74471135 161.67692269 -85.13851337 156.67692322 -80.0625 151.3125 C-79.3715625 150.54550781 -78.680625 149.77851563 -77.96875 148.98828125 C-59.66161851 129.41741121 -31.70639513 120.03450087 -5.46484375 118.9921875 C26.1216169 118.23966151 55.92473865 124.7571353 79.44873047 146.85498047 C97.73311249 164.75556438 107.04588479 188.95577069 111.25 213.75 C111.42152588 214.75635498 111.59305176 215.76270996 111.76977539 216.79956055 C112.71024972 222.71440403 113.10468598 228.3247651 112.9375 234.3125 C113.76507813 234.56257812 114.59265625 234.81265625 115.4453125 235.0703125 C129.01712603 239.89787033 140.89085734 248.23762366 151.9375 257.3125 C152.49308594 257.76882813 153.04867188 258.22515625 153.62109375 258.6953125 C177.61843362 278.76154779 192.34328533 308.01601364 195.77416992 339.01831055 C196.9223537 355.1460878 196.89381024 371.58414828 192.9375 387.3125 C192.71199463 388.29041504 192.71199463 388.29041504 192.48193359 389.28808594 C188.09344372 408.10891999 179.19099055 426.37465672 166.9375 441.3125 C166.44572266 441.91416992 165.95394531 442.51583984 165.44726562 443.13574219 C156.75266111 453.67945017 147.68926727 462.83102622 136.9375 471.3125 C135.52791016 472.43011719 135.52791016 472.43011719 134.08984375 473.5703125 C96.01291179 502.98640799 49.15632511 512.79792268 1.875 512.625 C0.83980225 512.62317719 -0.19539551 512.62135437 -1.26196289 512.61947632 C-16.72079488 512.57367038 -31.82260104 512.1333667 -47.0625 509.3125 C-48.0023877 509.14621094 -48.94227539 508.97992188 -49.91064453 508.80859375 C-102.20516575 499.31807402 -148.27281764 472.0370648 -178.796875 428.203125 C-206.89362085 386.74288529 -219.18647266 337.73976963 -223.0625 288.3125 C-223.12034668 287.60738281 -223.17819336 286.90226562 -223.23779297 286.17578125 C-227.60094408 230.96961998 -221.20784965 172.39429838 -199.0625 121.3125 C-198.74555176 120.57547852 -198.42860352 119.83845703 -198.10205078 119.07910156 C-178.00810485 72.8911512 -140.85451262 35.32205215 -94.0625 16.3125 C-81.40524692 11.36571602 -68.54324186 7.73267733 -55.25 4.9375 C-54.11981445 4.6988623 -52.98962891 4.46022461 -51.82519531 4.21435547 C-34.61290172 0.80297656 -17.50822482 -0.06766016 0 0 Z M-43.5 281.125 C-51.3578975 289.52312795 -53.45182104 298.53195137 -53.3359375 309.703125 C-52.52672798 320.38469062 -46.69443419 326.88642955 -39.25 334 C-24.27496197 344.86424327 -4.92705669 347.4264408 13.09765625 344.78125 C28.59220581 341.88094774 41.4515947 336.08113964 51.09765625 323.12109375 C61.54424535 307.17396517 67.57438808 287.41914233 66.9375 268.3125 C62.90145525 266.87277657 59.04906544 265.88176853 54.8125 265.25 C53.79929687 265.09402344 52.78609375 264.93804687 51.7421875 264.77734375 C21.2163794 261.04780457 -19.15138293 258.67720433 -43.5 281.125 Z " fill="#FFFFFF" transform="translate(258.0625,-0.31250000000000006)"/>
</svg>
